<svg xmlns="http://www.w3.org/2000/svg" viewBox="0 13.300000190734863 66.80000305175781 36.150001525878906" data-asc="0.989"><g fill="#424242"><g fill="#424242" transform="translate(0, 0)"><path d="M13.45 18.05L8.80 18.05Q8 18.05 8 18.45L8 49.45L2.75 49.45Q1.05 49.45 0.52 48.90Q0 48.35 0 46.60L0 16.15Q0 14.40 0.52 13.85Q1.05 13.30 2.75 13.30L13.45 13.30L13.45 18.05M15.45 13.30L20.70 13.30Q22.40 13.30 22.93 13.85Q23.45 14.40 23.45 16.15L23.45 46.55Q23.45 48.30 22.90 48.88Q22.35 49.45 20.70 49.45L15.45 49.45L15.45 32.70L10 32.70L10 27.95L15.45 27.95L15.45 13.30ZM35.25 24.45L41.25 24.45Q41.55 24.45 41.55 24.80L41.55 27.85Q41.55 28.20 41.15 28.20L38.90 28.20Q37.70 28.20 37.50 28.65Q37.30 29.30 37.30 30.10L37.30 45.60Q37.30 47.30 36.17 48.38Q35.05 49.45 32.85 49.45L29.80 49.45L29.80 30Q29.80 27.05 31.13 25.75Q32.45 24.45 35.25 24.45ZM54.30 24.45L59.15 24.45Q61.05 24.45 62.25 24.63Q63.45 24.80 64.35 25.40Q65.25 26 65.70 26.73Q66.15 27.45 66.40 29.05Q66.80 31.30 66.80 35.35Q66.80 39.40 66.75 40.83Q66.70 42.25 66.58 43.85Q66.45 45.45 66.13 46.20Q65.80 46.95 65.28 47.73Q64.75 48.50 63.90 48.80Q62.05 49.45 59.15 49.45L59.05 49.45L59.05 30.60Q59.05 30.50 59.05 30Q59.05 29.50 59 29.15Q58.75 28.20 57 28.20L54.30 28.20L54.30 24.45M52.80 24.45L52.80 43.30Q52.80 43.40 52.80 43.90Q52.80 44.40 52.90 44.75Q53.10 45.70 54.85 45.70L57.55 45.70L57.55 49.45L52.70 49.45Q50.80 49.45 49.60 49.28Q48.40 49.10 47.50 48.50Q46.60 47.90 46.15 47.18Q45.70 46.45 45.40 44.85Q45.05 42.60 45.05 38.55Q45.05 34.50 45.10 33.08Q45.15 31.65 45.27 30.05Q45.40 28.45 45.73 27.70Q46.05 26.95 46.58 26.18Q47.10 25.40 47.95 25.10Q49.80 24.45 52.70 24.45L52.80 24.45Z"/></g></g></svg>